<svg width="842" height="117" viewBox="0 0 842 117" fill="none" xmlns="http://www.w3.org/2000/svg">
<g clip-path="url(#clip0_402_21)">
<line x1="37.141" y1="167.268" x2="37.141" y2="92.2276" stroke="#E2C493" stroke-width="3.12667"/>
<line x1="47.5632" y1="161.014" x2="47.5632" y2="98.4809" stroke="#E2C493" stroke-width="3.12667"/>
<line x1="57.9854" y1="154.761" x2="57.9854" y2="104.734" stroke="#E2C493" stroke-width="3.12667"/>
<line x1="68.4076" y1="148.508" x2="68.4076" y2="110.988" stroke="#E2C493" stroke-width="3.12667"/>
<line x1="5.87432" y1="148.508" x2="5.87432" y2="110.988" stroke="#E2C493" stroke-width="3.12667"/>
<line x1="16.2965" y1="154.761" x2="16.2965" y2="104.734" stroke="#E2C493" stroke-width="3.12667"/>
<line x1="26.7188" y1="161.014" x2="26.7188" y2="98.4809" stroke="#E2C493" stroke-width="3.12667"/>
<line x1="255.398" y1="167.268" x2="255.398" y2="92.2276" stroke="#E2C493" stroke-width="3.12667"/>
<line x1="265.82" y1="161.014" x2="265.82" y2="98.4809" stroke="#E2C493" stroke-width="3.12667"/>
<line x1="276.243" y1="154.761" x2="276.243" y2="104.734" stroke="#E2C493" stroke-width="3.12667"/>
<line x1="286.665" y1="148.508" x2="286.665" y2="110.988" stroke="#E2C493" stroke-width="3.12667"/>
<line x1="224.132" y1="148.508" x2="224.132" y2="110.988" stroke="#E2C493" stroke-width="3.12667"/>
<line x1="234.554" y1="154.761" x2="234.554" y2="104.734" stroke="#E2C493" stroke-width="3.12667"/>
<line x1="244.976" y1="161.014" x2="244.976" y2="98.4809" stroke="#E2C493" stroke-width="3.12667"/>
<line y1="-1.56333" x2="37.52" y2="-1.56333" transform="matrix(-0.866025 0.5 0.5 0.866025 113.869 103.692)" stroke="#E2C493" stroke-width="3.12667"/>
<line y1="-1.56333" x2="50.0267" y2="-1.56333" transform="matrix(-0.866025 0.5 0.5 0.866025 124.495 109.591)" stroke="#E2C493" stroke-width="3.12667"/>
<line y1="-1.56333" x2="62.5333" y2="-1.56333" transform="matrix(-0.866025 0.5 0.5 0.866025 135.122 115.491)" stroke="#E2C493" stroke-width="3.12667"/>
<line y1="-1.56333" x2="62.5333" y2="-1.56333" transform="matrix(0.866025 0.5 0.5 -0.866025 160.544 113.406)" stroke="#E2C493" stroke-width="3.12667"/>
<line y1="-1.56333" x2="50.0267" y2="-1.56333" transform="matrix(0.866025 0.5 0.5 -0.866025 171.171 107.507)" stroke="#E2C493" stroke-width="3.12667"/>
<line y1="-1.56333" x2="37.52" y2="-1.56333" transform="matrix(0.866025 0.5 0.5 -0.866025 181.797 101.608)" stroke="#E2C493" stroke-width="3.12667"/>
<line y1="-1.56333" x2="37.52" y2="-1.56333" transform="matrix(-0.866025 0.5 0.5 0.866025 332.126 103.692)" stroke="#E2C493" stroke-width="3.12667"/>
<line y1="-1.56333" x2="50.0267" y2="-1.56333" transform="matrix(-0.866025 0.5 0.5 0.866025 342.752 109.591)" stroke="#E2C493" stroke-width="3.12667"/>
<line y1="-1.56333" x2="62.5333" y2="-1.56333" transform="matrix(-0.866025 0.5 0.5 0.866025 353.379 115.491)" stroke="#E2C493" stroke-width="3.12667"/>
<line y1="-1.56333" x2="62.5333" y2="-1.56333" transform="matrix(0.866025 0.5 0.5 -0.866025 378.801 113.406)" stroke="#E2C493" stroke-width="3.12667"/>
<line y1="-1.56333" x2="50.0267" y2="-1.56333" transform="matrix(0.866025 0.5 0.5 -0.866025 389.428 107.507)" stroke="#E2C493" stroke-width="3.12667"/>
<line y1="-1.56333" x2="37.52" y2="-1.56333" transform="matrix(0.866025 0.5 0.5 -0.866025 400.055 101.608)" stroke="#E2C493" stroke-width="3.12667"/>
<line x1="473.656" y1="167.268" x2="473.656" y2="92.2276" stroke="#E2C493" stroke-width="3.12667"/>
<line x1="484.078" y1="161.014" x2="484.078" y2="98.4809" stroke="#E2C493" stroke-width="3.12667"/>
<line x1="494.5" y1="154.761" x2="494.5" y2="104.734" stroke="#E2C493" stroke-width="3.12667"/>
<line x1="504.922" y1="148.508" x2="504.922" y2="110.988" stroke="#E2C493" stroke-width="3.12667"/>
<line x1="442.389" y1="148.508" x2="442.389" y2="110.988" stroke="#E2C493" stroke-width="3.12667"/>
<line x1="452.811" y1="154.761" x2="452.811" y2="104.734" stroke="#E2C493" stroke-width="3.12667"/>
<line x1="463.233" y1="161.014" x2="463.233" y2="98.4809" stroke="#E2C493" stroke-width="3.12667"/>
<line x1="691.913" y1="167.268" x2="691.913" y2="92.2276" stroke="#E2C493" stroke-width="3.12667"/>
<line x1="702.335" y1="161.014" x2="702.335" y2="98.4809" stroke="#E2C493" stroke-width="3.12667"/>
<line x1="712.757" y1="154.761" x2="712.757" y2="104.734" stroke="#E2C493" stroke-width="3.12667"/>
<line x1="723.179" y1="148.508" x2="723.179" y2="110.988" stroke="#E2C493" stroke-width="3.12667"/>
<line x1="660.646" y1="148.508" x2="660.646" y2="110.988" stroke="#E2C493" stroke-width="3.12667"/>
<line x1="671.068" y1="154.761" x2="671.068" y2="104.734" stroke="#E2C493" stroke-width="3.12667"/>
<line x1="681.491" y1="161.014" x2="681.491" y2="98.4809" stroke="#E2C493" stroke-width="3.12667"/>
<line y1="-1.56333" x2="37.52" y2="-1.56333" transform="matrix(-0.866025 0.5 0.5 0.866025 550.383 103.692)" stroke="#E2C493" stroke-width="3.12667"/>
<line y1="-1.56333" x2="50.0267" y2="-1.56333" transform="matrix(-0.866025 0.5 0.5 0.866025 561.01 109.591)" stroke="#E2C493" stroke-width="3.12667"/>
<line y1="-1.56333" x2="62.5333" y2="-1.56333" transform="matrix(-0.866025 0.5 0.5 0.866025 571.636 115.491)" stroke="#E2C493" stroke-width="3.12667"/>
<line y1="-1.56333" x2="62.5333" y2="-1.56333" transform="matrix(0.866025 0.5 0.5 -0.866025 597.059 113.406)" stroke="#E2C493" stroke-width="3.12667"/>
<line y1="-1.56333" x2="50.0267" y2="-1.56333" transform="matrix(0.866025 0.5 0.5 -0.866025 607.685 107.507)" stroke="#E2C493" stroke-width="3.12667"/>
<line y1="-1.56333" x2="37.52" y2="-1.56333" transform="matrix(0.866025 0.5 0.5 -0.866025 618.312 101.608)" stroke="#E2C493" stroke-width="3.12667"/>
<line y1="-1.56333" x2="37.52" y2="-1.56333" transform="matrix(-0.866025 0.5 0.5 0.866025 768.64 103.692)" stroke="#E2C493" stroke-width="3.12667"/>
<line y1="-1.56333" x2="50.0267" y2="-1.56333" transform="matrix(-0.866025 0.5 0.5 0.866025 779.267 109.591)" stroke="#E2C493" stroke-width="3.12667"/>
<line y1="-1.56333" x2="62.5333" y2="-1.56333" transform="matrix(-0.866025 0.5 0.5 0.866025 789.894 115.491)" stroke="#E2C493" stroke-width="3.12667"/>
<line y1="-1.56333" x2="62.5333" y2="-1.56333" transform="matrix(0.866025 0.5 0.5 -0.866025 815.316 113.406)" stroke="#E2C493" stroke-width="3.12667"/>
<line y1="-1.56333" x2="50.0267" y2="-1.56333" transform="matrix(0.866025 0.5 0.5 -0.866025 825.943 107.507)" stroke="#E2C493" stroke-width="3.12667"/>
<line y1="-1.56333" x2="37.52" y2="-1.56333" transform="matrix(0.866025 0.5 0.5 -0.866025 836.569 101.608)" stroke="#E2C493" stroke-width="3.12667"/>
<line x1="37.141" y1="42.2009" x2="37.141" y2="-32.8391" stroke="#E2C493" stroke-width="3.12667"/>
<line x1="47.5632" y1="35.9476" x2="47.5632" y2="-26.5857" stroke="#E2C493" stroke-width="3.12667"/>
<line x1="57.9854" y1="29.6943" x2="57.9854" y2="-20.3324" stroke="#E2C493" stroke-width="3.12667"/>
<line x1="68.4076" y1="23.4409" x2="68.4076" y2="-14.0791" stroke="#E2C493" stroke-width="3.12667"/>
<line x1="5.87432" y1="23.4409" x2="5.87432" y2="-14.0791" stroke="#E2C493" stroke-width="3.12667"/>
<line x1="16.2965" y1="29.6943" x2="16.2965" y2="-20.3324" stroke="#E2C493" stroke-width="3.12667"/>
<line x1="26.7188" y1="35.9476" x2="26.7188" y2="-26.5857" stroke="#E2C493" stroke-width="3.12667"/>
<line x1="35.8382" y1="88.4086" x2="-29.1483" y2="50.8886" stroke="#E2C493" stroke-width="3.12667"/>
<line x1="35.6338" y1="76.256" x2="-18.5217" y2="44.9893" stroke="#E2C493" stroke-width="3.12667"/>
<line x1="35.4293" y1="64.1034" x2="-7.89503" y2="39.0901" stroke="#E2C493" stroke-width="3.12667"/>
<line x1="35.2249" y1="51.9508" x2="2.73165" y2="33.1908" stroke="#E2C493" stroke-width="3.12667"/>
<line x1="3.95825" y1="106.106" x2="-28.535" y2="87.3463" stroke="#E2C493" stroke-width="3.12667"/>
<line x1="14.5849" y1="100.207" x2="-28.7395" y2="75.1937" stroke="#E2C493" stroke-width="3.12667"/>
<line x1="25.2116" y1="94.3078" x2="-28.9439" y2="63.0411" stroke="#E2C493" stroke-width="3.12667"/>
<line x1="40.0071" y1="87.7852" x2="104.994" y2="50.2652" stroke="#E2C493" stroke-width="3.12667"/>
<line x1="50.6337" y1="93.6845" x2="104.789" y2="62.4178" stroke="#E2C493" stroke-width="3.12667"/>
<line x1="61.2604" y1="99.5837" x2="104.585" y2="74.5704" stroke="#E2C493" stroke-width="3.12667"/>
<line x1="71.887" y1="105.483" x2="104.38" y2="86.723" stroke="#E2C493" stroke-width="3.12667"/>
<line x1="40.6204" y1="51.3275" x2="73.1136" y2="32.5675" stroke="#E2C493" stroke-width="3.12667"/>
<line x1="40.416" y1="63.4801" x2="83.7403" y2="38.4667" stroke="#E2C493" stroke-width="3.12667"/>
<line x1="40.2115" y1="75.6327" x2="94.367" y2="44.366" stroke="#E2C493" stroke-width="3.12667"/>
<line x1="255.398" y1="42.2009" x2="255.398" y2="-32.8391" stroke="#E2C493" stroke-width="3.12667"/>
<line x1="265.82" y1="35.9476" x2="265.82" y2="-26.5857" stroke="#E2C493" stroke-width="3.12667"/>
<line x1="276.243" y1="29.6943" x2="276.243" y2="-20.3324" stroke="#E2C493" stroke-width="3.12667"/>
<line x1="286.665" y1="23.4409" x2="286.665" y2="-14.0791" stroke="#E2C493" stroke-width="3.12667"/>
<line x1="224.132" y1="23.4409" x2="224.132" y2="-14.0791" stroke="#E2C493" stroke-width="3.12667"/>
<line x1="234.554" y1="29.6943" x2="234.554" y2="-20.3324" stroke="#E2C493" stroke-width="3.12667"/>
<line x1="244.976" y1="35.9476" x2="244.976" y2="-26.5857" stroke="#E2C493" stroke-width="3.12667"/>
<line x1="254.095" y1="88.4086" x2="189.109" y2="50.8886" stroke="#E2C493" stroke-width="3.12667"/>
<line x1="253.891" y1="76.256" x2="199.736" y2="44.9893" stroke="#E2C493" stroke-width="3.12667"/>
<line x1="253.687" y1="64.1034" x2="210.362" y2="39.0901" stroke="#E2C493" stroke-width="3.12667"/>
<line x1="253.482" y1="51.9508" x2="220.989" y2="33.1908" stroke="#E2C493" stroke-width="3.12667"/>
<line x1="222.215" y1="106.106" x2="189.722" y2="87.3463" stroke="#E2C493" stroke-width="3.12667"/>
<line x1="232.842" y1="100.207" x2="189.518" y2="75.1937" stroke="#E2C493" stroke-width="3.12667"/>
<line x1="243.469" y1="94.3078" x2="189.313" y2="63.0411" stroke="#E2C493" stroke-width="3.12667"/>
<line x1="258.264" y1="87.7852" x2="323.251" y2="50.2652" stroke="#E2C493" stroke-width="3.12667"/>
<line x1="268.891" y1="93.6845" x2="323.046" y2="62.4178" stroke="#E2C493" stroke-width="3.12667"/>
<line x1="279.518" y1="99.5837" x2="322.842" y2="74.5704" stroke="#E2C493" stroke-width="3.12667"/>
<line x1="290.144" y1="105.483" x2="322.638" y2="86.723" stroke="#E2C493" stroke-width="3.12667"/>
<line x1="258.878" y1="51.3275" x2="291.371" y2="32.5675" stroke="#E2C493" stroke-width="3.12667"/>
<line x1="258.673" y1="63.4801" x2="301.998" y2="38.4667" stroke="#E2C493" stroke-width="3.12667"/>
<line x1="258.469" y1="75.6327" x2="312.624" y2="44.366" stroke="#E2C493" stroke-width="3.12667"/>
<line y1="-1.56333" x2="75.04" y2="-1.56333" transform="matrix(0 1 1 0 147.833 41.1769)" stroke="#E2C493" stroke-width="3.12667"/>
<line y1="-1.56333" x2="62.5333" y2="-1.56333" transform="matrix(0 1 1 0 158.255 47.4302)" stroke="#E2C493" stroke-width="3.12667"/>
<line y1="-1.56333" x2="50.0267" y2="-1.56333" transform="matrix(0 1 1 0 168.677 53.6835)" stroke="#E2C493" stroke-width="3.12667"/>
<line y1="-1.56333" x2="37.52" y2="-1.56333" transform="matrix(0 1 1 0 179.1 59.9369)" stroke="#E2C493" stroke-width="3.12667"/>
<line y1="-1.56333" x2="37.52" y2="-1.56333" transform="matrix(0 1 1 0 116.566 59.9369)" stroke="#E2C493" stroke-width="3.12667"/>
<line y1="-1.56333" x2="50.0267" y2="-1.56333" transform="matrix(0 1 1 0 126.989 53.6835)" stroke="#E2C493" stroke-width="3.12667"/>
<line y1="-1.56333" x2="62.5333" y2="-1.56333" transform="matrix(0 1 1 0 137.411 47.4302)" stroke="#E2C493" stroke-width="3.12667"/>
<line y1="-1.56333" x2="75.04" y2="-1.56333" transform="matrix(-0.866025 0.5 0.5 0.866025 145.749 -3.6769)" stroke="#E2C493" stroke-width="3.12667"/>
<line y1="-1.56333" x2="62.5333" y2="-1.56333" transform="matrix(-0.866025 0.5 0.5 0.866025 145.544 8.47569)" stroke="#E2C493" stroke-width="3.12667"/>
<line y1="-1.56333" x2="50.0267" y2="-1.56333" transform="matrix(-0.866025 0.5 0.5 0.866025 145.34 20.6283)" stroke="#E2C493" stroke-width="3.12667"/>
<line y1="-1.56333" x2="37.52" y2="-1.56333" transform="matrix(-0.866025 0.5 0.5 0.866025 145.135 32.7808)" stroke="#E2C493" stroke-width="3.12667"/>
<line y1="-1.56333" x2="50.0267" y2="-1.56333" transform="matrix(-0.866025 0.5 0.5 0.866025 124.495 -15.4754)" stroke="#E2C493" stroke-width="3.12667"/>
<line y1="-1.56333" x2="62.5333" y2="-1.56333" transform="matrix(-0.866025 0.5 0.5 0.866025 135.122 -9.57613)" stroke="#E2C493" stroke-width="3.12667"/>
<line y1="-1.56333" x2="75.04" y2="-1.56333" transform="matrix(0.866025 0.5 0.5 -0.866025 149.917 -5.76132)" stroke="#E2C493" stroke-width="3.12667"/>
<line y1="-1.56333" x2="62.5333" y2="-1.56333" transform="matrix(0.866025 0.5 0.5 -0.866025 160.544 -11.6606)" stroke="#E2C493" stroke-width="3.12667"/>
<line y1="-1.56333" x2="50.0267" y2="-1.56333" transform="matrix(0.866025 0.5 0.5 -0.866025 171.171 -17.5598)" stroke="#E2C493" stroke-width="3.12667"/>
<line y1="-1.56333" x2="37.52" y2="-1.56333" transform="matrix(0.866025 0.5 0.5 -0.866025 150.531 30.6964)" stroke="#E2C493" stroke-width="3.12667"/>
<line y1="-1.56333" x2="50.0267" y2="-1.56333" transform="matrix(0.866025 0.5 0.5 -0.866025 150.326 18.5438)" stroke="#E2C493" stroke-width="3.12667"/>
<line y1="-1.56333" x2="62.5333" y2="-1.56333" transform="matrix(0.866025 0.5 0.5 -0.866025 150.122 6.39124)" stroke="#E2C493" stroke-width="3.12667"/>
<line y1="-1.56333" x2="75.04" y2="-1.56333" transform="matrix(0 1 1 0 366.09 41.1769)" stroke="#E2C493" stroke-width="3.12667"/>
<line y1="-1.56333" x2="62.5333" y2="-1.56333" transform="matrix(0 1 1 0 376.512 47.4302)" stroke="#E2C493" stroke-width="3.12667"/>
<line y1="-1.56333" x2="50.0267" y2="-1.56333" transform="matrix(0 1 1 0 386.935 53.6835)" stroke="#E2C493" stroke-width="3.12667"/>
<line y1="-1.56333" x2="37.52" y2="-1.56333" transform="matrix(0 1 1 0 397.357 59.9369)" stroke="#E2C493" stroke-width="3.12667"/>
<line y1="-1.56333" x2="37.52" y2="-1.56333" transform="matrix(0 1 1 0 334.824 59.9369)" stroke="#E2C493" stroke-width="3.12667"/>
<line y1="-1.56333" x2="50.0267" y2="-1.56333" transform="matrix(0 1 1 0 345.246 53.6835)" stroke="#E2C493" stroke-width="3.12667"/>
<line y1="-1.56333" x2="62.5333" y2="-1.56333" transform="matrix(0 1 1 0 355.668 47.4302)" stroke="#E2C493" stroke-width="3.12667"/>
<line y1="-1.56333" x2="75.04" y2="-1.56333" transform="matrix(-0.866025 0.5 0.5 0.866025 364.006 -3.6769)" stroke="#E2C493" stroke-width="3.12667"/>
<line y1="-1.56333" x2="62.5333" y2="-1.56333" transform="matrix(-0.866025 0.5 0.5 0.866025 363.801 8.47569)" stroke="#E2C493" stroke-width="3.12667"/>
<line y1="-1.56333" x2="50.0267" y2="-1.56333" transform="matrix(-0.866025 0.5 0.5 0.866025 363.597 20.6283)" stroke="#E2C493" stroke-width="3.12667"/>
<line y1="-1.56333" x2="37.52" y2="-1.56333" transform="matrix(-0.866025 0.5 0.5 0.866025 363.392 32.7808)" stroke="#E2C493" stroke-width="3.12667"/>
<line y1="-1.56333" x2="50.0267" y2="-1.56333" transform="matrix(-0.866025 0.5 0.5 0.866025 342.752 -15.4754)" stroke="#E2C493" stroke-width="3.12667"/>
<line y1="-1.56333" x2="62.5333" y2="-1.56333" transform="matrix(-0.866025 0.5 0.5 0.866025 353.379 -9.57613)" stroke="#E2C493" stroke-width="3.12667"/>
<line y1="-1.56333" x2="75.04" y2="-1.56333" transform="matrix(0.866025 0.5 0.5 -0.866025 368.175 -5.76132)" stroke="#E2C493" stroke-width="3.12667"/>
<line y1="-1.56333" x2="62.5333" y2="-1.56333" transform="matrix(0.866025 0.5 0.5 -0.866025 378.801 -11.6606)" stroke="#E2C493" stroke-width="3.12667"/>
<line y1="-1.56333" x2="50.0267" y2="-1.56333" transform="matrix(0.866025 0.5 0.5 -0.866025 389.428 -17.5598)" stroke="#E2C493" stroke-width="3.12667"/>
<line y1="-1.56333" x2="37.52" y2="-1.56333" transform="matrix(0.866025 0.5 0.5 -0.866025 368.788 30.6964)" stroke="#E2C493" stroke-width="3.12667"/>
<line y1="-1.56333" x2="50.0267" y2="-1.56333" transform="matrix(0.866025 0.5 0.5 -0.866025 368.584 18.5438)" stroke="#E2C493" stroke-width="3.12667"/>
<line y1="-1.56333" x2="62.5333" y2="-1.56333" transform="matrix(0.866025 0.5 0.5 -0.866025 368.379 6.39124)" stroke="#E2C493" stroke-width="3.12667"/>
<line x1="473.656" y1="42.2009" x2="473.656" y2="-32.8391" stroke="#E2C493" stroke-width="3.12667"/>
<line x1="484.078" y1="35.9476" x2="484.078" y2="-26.5857" stroke="#E2C493" stroke-width="3.12667"/>
<line x1="494.5" y1="29.6943" x2="494.5" y2="-20.3324" stroke="#E2C493" stroke-width="3.12667"/>
<line x1="504.922" y1="23.4409" x2="504.922" y2="-14.0791" stroke="#E2C493" stroke-width="3.12667"/>
<line x1="442.389" y1="23.4409" x2="442.389" y2="-14.0791" stroke="#E2C493" stroke-width="3.12667"/>
<line x1="452.811" y1="29.6943" x2="452.811" y2="-20.3324" stroke="#E2C493" stroke-width="3.12667"/>
<line x1="463.233" y1="35.9476" x2="463.233" y2="-26.5857" stroke="#E2C493" stroke-width="3.12667"/>
<line x1="472.353" y1="88.4086" x2="407.366" y2="50.8886" stroke="#E2C493" stroke-width="3.12667"/>
<line x1="472.148" y1="76.256" x2="417.993" y2="44.9893" stroke="#E2C493" stroke-width="3.12667"/>
<line x1="471.944" y1="64.1034" x2="428.62" y2="39.0901" stroke="#E2C493" stroke-width="3.12667"/>
<line x1="471.739" y1="51.9508" x2="439.246" y2="33.1908" stroke="#E2C493" stroke-width="3.12667"/>
<line x1="440.473" y1="106.106" x2="407.979" y2="87.3463" stroke="#E2C493" stroke-width="3.12667"/>
<line x1="451.099" y1="100.207" x2="407.775" y2="75.1937" stroke="#E2C493" stroke-width="3.12667"/>
<line x1="461.726" y1="94.3078" x2="407.571" y2="63.0411" stroke="#E2C493" stroke-width="3.12667"/>
<line x1="476.522" y1="87.7852" x2="541.508" y2="50.2652" stroke="#E2C493" stroke-width="3.12667"/>
<line x1="487.148" y1="93.6845" x2="541.304" y2="62.4178" stroke="#E2C493" stroke-width="3.12667"/>
<line x1="497.775" y1="99.5837" x2="541.099" y2="74.5704" stroke="#E2C493" stroke-width="3.12667"/>
<line x1="508.402" y1="105.483" x2="540.895" y2="86.723" stroke="#E2C493" stroke-width="3.12667"/>
<line x1="477.135" y1="51.3275" x2="509.628" y2="32.5675" stroke="#E2C493" stroke-width="3.12667"/>
<line x1="476.93" y1="63.4801" x2="520.255" y2="38.4667" stroke="#E2C493" stroke-width="3.12667"/>
<line x1="476.726" y1="75.6327" x2="530.882" y2="44.366" stroke="#E2C493" stroke-width="3.12667"/>
<line x1="691.913" y1="42.2009" x2="691.913" y2="-32.8391" stroke="#E2C493" stroke-width="3.12667"/>
<line x1="702.335" y1="35.9476" x2="702.335" y2="-26.5857" stroke="#E2C493" stroke-width="3.12667"/>
<line x1="712.757" y1="29.6943" x2="712.757" y2="-20.3324" stroke="#E2C493" stroke-width="3.12667"/>
<line x1="723.179" y1="23.4409" x2="723.179" y2="-14.0791" stroke="#E2C493" stroke-width="3.12667"/>
<line x1="660.646" y1="23.4409" x2="660.646" y2="-14.0791" stroke="#E2C493" stroke-width="3.12667"/>
<line x1="671.068" y1="29.6943" x2="671.068" y2="-20.3324" stroke="#E2C493" stroke-width="3.12667"/>
<line x1="681.491" y1="35.9476" x2="681.491" y2="-26.5857" stroke="#E2C493" stroke-width="3.12667"/>
<line x1="690.61" y1="88.4086" x2="625.623" y2="50.8886" stroke="#E2C493" stroke-width="3.12667"/>
<line x1="690.406" y1="76.256" x2="636.25" y2="44.9893" stroke="#E2C493" stroke-width="3.12667"/>
<line x1="690.201" y1="64.1034" x2="646.877" y2="39.0901" stroke="#E2C493" stroke-width="3.12667"/>
<line x1="689.997" y1="51.9508" x2="657.503" y2="33.1908" stroke="#E2C493" stroke-width="3.12667"/>
<line x1="658.73" y1="106.106" x2="626.237" y2="87.3463" stroke="#E2C493" stroke-width="3.12667"/>
<line x1="669.357" y1="100.207" x2="626.032" y2="75.1937" stroke="#E2C493" stroke-width="3.12667"/>
<line x1="679.983" y1="94.3078" x2="625.828" y2="63.0411" stroke="#E2C493" stroke-width="3.12667"/>
<line x1="694.779" y1="87.7852" x2="759.765" y2="50.2652" stroke="#E2C493" stroke-width="3.12667"/>
<line x1="705.406" y1="93.6845" x2="759.561" y2="62.4178" stroke="#E2C493" stroke-width="3.12667"/>
<line x1="716.032" y1="99.5837" x2="759.357" y2="74.5704" stroke="#E2C493" stroke-width="3.12667"/>
<line x1="726.659" y1="105.483" x2="759.152" y2="86.723" stroke="#E2C493" stroke-width="3.12667"/>
<line x1="695.392" y1="51.3275" x2="727.885" y2="32.5675" stroke="#E2C493" stroke-width="3.12667"/>
<line x1="695.188" y1="63.4801" x2="738.512" y2="38.4667" stroke="#E2C493" stroke-width="3.12667"/>
<line x1="694.983" y1="75.6327" x2="749.139" y2="44.366" stroke="#E2C493" stroke-width="3.12667"/>
<line y1="-1.56333" x2="75.04" y2="-1.56333" transform="matrix(0 1 1 0 584.347 41.1769)" stroke="#E2C493" stroke-width="3.12667"/>
<line y1="-1.56333" x2="62.5333" y2="-1.56333" transform="matrix(0 1 1 0 594.77 47.4302)" stroke="#E2C493" stroke-width="3.12667"/>
<line y1="-1.56333" x2="50.0267" y2="-1.56333" transform="matrix(0 1 1 0 605.192 53.6835)" stroke="#E2C493" stroke-width="3.12667"/>
<line y1="-1.56333" x2="37.52" y2="-1.56333" transform="matrix(0 1 1 0 615.614 59.9369)" stroke="#E2C493" stroke-width="3.12667"/>
<line y1="-1.56333" x2="37.52" y2="-1.56333" transform="matrix(0 1 1 0 553.081 59.9369)" stroke="#E2C493" stroke-width="3.12667"/>
<line y1="-1.56333" x2="50.0267" y2="-1.56333" transform="matrix(0 1 1 0 563.503 53.6835)" stroke="#E2C493" stroke-width="3.12667"/>
<line y1="-1.56333" x2="62.5333" y2="-1.56333" transform="matrix(0 1 1 0 573.925 47.4302)" stroke="#E2C493" stroke-width="3.12667"/>
<line y1="-1.56333" x2="75.04" y2="-1.56333" transform="matrix(-0.866025 0.5 0.5 0.866025 582.263 -3.6769)" stroke="#E2C493" stroke-width="3.12667"/>
<line y1="-1.56333" x2="62.5333" y2="-1.56333" transform="matrix(-0.866025 0.5 0.5 0.866025 582.059 8.47569)" stroke="#E2C493" stroke-width="3.12667"/>
<line y1="-1.56333" x2="50.0267" y2="-1.56333" transform="matrix(-0.866025 0.5 0.5 0.866025 581.854 20.6283)" stroke="#E2C493" stroke-width="3.12667"/>
<line y1="-1.56333" x2="37.52" y2="-1.56333" transform="matrix(-0.866025 0.5 0.5 0.866025 581.65 32.7808)" stroke="#E2C493" stroke-width="3.12667"/>
<line y1="-1.56333" x2="50.0267" y2="-1.56333" transform="matrix(-0.866025 0.5 0.5 0.866025 561.01 -15.4754)" stroke="#E2C493" stroke-width="3.12667"/>
<line y1="-1.56333" x2="62.5333" y2="-1.56333" transform="matrix(-0.866025 0.5 0.5 0.866025 571.636 -9.57613)" stroke="#E2C493" stroke-width="3.12667"/>
<line y1="-1.56333" x2="75.04" y2="-1.56333" transform="matrix(0.866025 0.5 0.5 -0.866025 586.432 -5.76133)" stroke="#E2C493" stroke-width="3.12667"/>
<line y1="-1.56333" x2="62.5333" y2="-1.56333" transform="matrix(0.866025 0.5 0.5 -0.866025 597.059 -11.6606)" stroke="#E2C493" stroke-width="3.12667"/>
<line y1="-1.56333" x2="50.0267" y2="-1.56333" transform="matrix(0.866025 0.5 0.5 -0.866025 607.685 -17.5598)" stroke="#E2C493" stroke-width="3.12667"/>
<line y1="-1.56333" x2="37.52" y2="-1.56333" transform="matrix(0.866025 0.5 0.5 -0.866025 587.045 30.6964)" stroke="#E2C493" stroke-width="3.12667"/>
<line y1="-1.56333" x2="50.0267" y2="-1.56333" transform="matrix(0.866025 0.5 0.5 -0.866025 586.841 18.5438)" stroke="#E2C493" stroke-width="3.12667"/>
<line y1="-1.56333" x2="62.5333" y2="-1.56333" transform="matrix(0.866025 0.5 0.5 -0.866025 586.636 6.39124)" stroke="#E2C493" stroke-width="3.12667"/>
<line y1="-1.56333" x2="75.04" y2="-1.56333" transform="matrix(0 1 1 0 802.605 41.1769)" stroke="#E2C493" stroke-width="3.12667"/>
<line y1="-1.56333" x2="62.5333" y2="-1.56333" transform="matrix(0 1 1 0 813.027 47.4302)" stroke="#E2C493" stroke-width="3.12667"/>
<line y1="-1.56333" x2="50.0267" y2="-1.56333" transform="matrix(0 1 1 0 823.449 53.6835)" stroke="#E2C493" stroke-width="3.12667"/>
<line y1="-1.56333" x2="37.52" y2="-1.56333" transform="matrix(0 1 1 0 833.871 59.9369)" stroke="#E2C493" stroke-width="3.12667"/>
<line y1="-1.56333" x2="37.52" y2="-1.56333" transform="matrix(0 1 1 0 771.338 59.9369)" stroke="#E2C493" stroke-width="3.12667"/>
<line y1="-1.56333" x2="50.0267" y2="-1.56333" transform="matrix(0 1 1 0 781.76 53.6835)" stroke="#E2C493" stroke-width="3.12667"/>
<line y1="-1.56333" x2="62.5333" y2="-1.56333" transform="matrix(0 1 1 0 792.182 47.4302)" stroke="#E2C493" stroke-width="3.12667"/>
<line y1="-1.56333" x2="75.04" y2="-1.56333" transform="matrix(-0.866025 0.5 0.5 0.866025 800.52 -3.6769)" stroke="#E2C493" stroke-width="3.12667"/>
<line y1="-1.56333" x2="62.5333" y2="-1.56333" transform="matrix(-0.866025 0.5 0.5 0.866025 800.316 8.47569)" stroke="#E2C493" stroke-width="3.12667"/>
<line y1="-1.56333" x2="50.0267" y2="-1.56333" transform="matrix(-0.866025 0.5 0.5 0.866025 800.111 20.6283)" stroke="#E2C493" stroke-width="3.12667"/>
<line y1="-1.56333" x2="37.52" y2="-1.56333" transform="matrix(-0.866025 0.5 0.5 0.866025 799.907 32.7808)" stroke="#E2C493" stroke-width="3.12667"/>
<line y1="-1.56333" x2="50.0267" y2="-1.56333" transform="matrix(-0.866025 0.5 0.5 0.866025 779.267 -15.4754)" stroke="#E2C493" stroke-width="3.12667"/>
<line y1="-1.56333" x2="62.5333" y2="-1.56333" transform="matrix(-0.866025 0.5 0.5 0.866025 789.894 -9.57613)" stroke="#E2C493" stroke-width="3.12667"/>
<line y1="-1.56333" x2="75.04" y2="-1.56333" transform="matrix(0.866025 0.5 0.5 -0.866025 804.689 -5.76132)" stroke="#E2C493" stroke-width="3.12667"/>
<line y1="-1.56333" x2="62.5333" y2="-1.56333" transform="matrix(0.866025 0.5 0.5 -0.866025 815.316 -11.6606)" stroke="#E2C493" stroke-width="3.12667"/>
<line y1="-1.56333" x2="50.0267" y2="-1.56333" transform="matrix(0.866025 0.5 0.5 -0.866025 825.943 -17.5598)" stroke="#E2C493" stroke-width="3.12667"/>
<line y1="-1.56333" x2="37.52" y2="-1.56333" transform="matrix(0.866025 0.5 0.5 -0.866025 805.302 30.6964)" stroke="#E2C493" stroke-width="3.12667"/>
<line y1="-1.56333" x2="50.0267" y2="-1.56333" transform="matrix(0.866025 0.5 0.5 -0.866025 805.098 18.5438)" stroke="#E2C493" stroke-width="3.12667"/>
<line y1="-1.56333" x2="62.5333" y2="-1.56333" transform="matrix(0.866025 0.5 0.5 -0.866025 804.894 6.39124)" stroke="#E2C493" stroke-width="3.12667"/>
</g>
<defs>
<clipPath id="clip0_402_21">
<rect width="929.309" height="116.729" fill="white" transform="translate(-44)"/>
</clipPath>
</defs>
</svg>
